<?xml version="1.0" encoding="UTF-8" standalone="no"?><!DOCTYPE svg PUBLIC "-//W3C//DTD SVG 1.1//EN" "http://www.w3.org/Graphics/SVG/1.1/DTD/svg11.dtd"><svg width="100%" height="100%" viewBox="0 0 134 134" version="1.1" xmlns="http://www.w3.org/2000/svg" xmlns:xlink="http://www.w3.org/1999/xlink" xml:space="preserve" xmlns:serif="http://www.serif.com/" style="fill-rule:evenodd;clip-rule:evenodd;stroke-linejoin:round;stroke-miterlimit:2;"><g id="Menu"><circle cx="66.463" cy="66.87" r="55.719" style="fill:#bc6c25;"/><g><path d="M103.533,82.628c0.833,1.067 0.833,2.804 -0.001,3.875c-0.833,1.071 -2.186,1.074 -3.02,0.007c-0.833,-1.068 -0.833,-2.805 0.001,-3.876c0.833,-1.071 2.187,-1.074 3.02,-0.006Z" style="fill:#fff;"/><path d="M32.821,82.69c0.833,1.068 0.833,2.804 -0.001,3.876c-0.833,1.071 -2.186,1.074 -3.019,0.006c-0.834,-1.068 -0.833,-2.804 0,-3.876c0.834,-1.071 2.187,-1.074 3.02,-0.006Z" style="fill:#fff;"/><path d="M102.117,81.821l0.003,5.495l-71.118,0.055l-0.003,-5.494l71.118,-0.056Z" style="fill:#fff;"/></g><g><path d="M103.533,46.761c0.833,1.068 0.833,2.804 -0.001,3.876c-0.833,1.071 -2.186,1.074 -3.02,0.006c-0.833,-1.068 -0.833,-2.804 0.001,-3.876c0.833,-1.071 2.187,-1.074 3.02,-0.006Z" style="fill:#fff;"/><path d="M32.821,46.823c0.833,1.068 0.833,2.805 -0.001,3.876c-0.833,1.071 -2.186,1.074 -3.019,0.006c-0.834,-1.067 -0.833,-2.804 0,-3.875c0.834,-1.071 2.187,-1.074 3.02,-0.007Z" style="fill:#fff;"/><path d="M102.117,45.955l0.003,5.494l-71.118,0.056l-0.003,-5.495l71.118,-0.055Z" style="fill:#fff;"/></g><g><path d="M29.799,64.756c-0.833,1.069 -0.831,2.806 0.004,3.875c0.835,1.07 2.188,1.071 3.02,0.002c0.832,-1.069 0.83,-2.806 -0.005,-3.876c-0.834,-1.07 -2.187,-1.07 -3.019,-0.001Z" style="fill:#fff;"/><path d="M100.51,64.701c-0.832,1.069 -0.83,2.805 0.005,3.875c0.835,1.07 2.188,1.071 3.02,0.001c0.832,-1.069 0.83,-2.805 -0.005,-3.875c-0.834,-1.07 -2.187,-1.071 -3.02,-0.001Z" style="fill:#fff;"/><path d="M31.213,63.947l0.003,5.495l71.118,-0.063l-0.003,-5.495l-71.118,0.063Z" style="fill:#fff;"/></g></g></svg>