<?xml version="1.0" encoding="UTF-8" standalone="no"?><!DOCTYPE svg PUBLIC "-//W3C//DTD SVG 1.1//EN" "http://www.w3.org/Graphics/SVG/1.1/DTD/svg11.dtd"><svg width="100%" height="100%" viewBox="0 0 134 134" version="1.1" xmlns="http://www.w3.org/2000/svg" xmlns:xlink="http://www.w3.org/1999/xlink" xml:space="preserve" xmlns:serif="http://www.serif.com/" style="fill-rule:evenodd;clip-rule:evenodd;stroke-linecap:round;stroke-linejoin:round;stroke-miterlimit:1.5;"><g id="Success"><g><g><path d="M97.62,33.773c1.354,0 2.723,1.07 3.054,2.386c0.331,1.316 -0.5,2.384 -1.854,2.384c-1.354,-0.001 -2.723,-1.07 -3.054,-2.386c-0.331,-1.317 0.5,-2.385 1.854,-2.384Z" style="fill:#fff;"/><path d="M54.14,89.537c1.355,0.001 2.723,1.07 3.054,2.387c0.331,1.316 -0.499,2.384 -1.854,2.383c-1.354,-0 -2.722,-1.069 -3.054,-2.386c-0.331,-1.316 0.5,-2.384 1.854,-2.384Z" style="fill:#fff;"/><path d="M96.113,34.392l4.332,3.38l-43.735,56.081l-4.332,-3.38l43.735,-56.081Z" style="fill:#fff;"/></g><g><clipPath id="_clip1"><path d="M28.24,56.899l34.399,0.024l-11.06,43.748l-34.399,-0.024l11.06,-43.748Z"/></clipPath><g clip-path="url(#_clip1)"><path d="M30.695,56.901c-1.355,-0.001 -2.725,1.066 -3.057,2.381c-0.333,1.316 0.497,2.385 1.852,2.386c1.355,0.001 2.725,-1.067 3.057,-2.382c0.333,-1.316 -0.497,-2.384 -1.852,-2.385Z" style="fill:#fff;"/><path d="M74.132,112.699c-1.355,-0.001 -2.725,1.066 -3.057,2.381c-0.333,1.316 0.497,2.385 1.852,2.386c1.354,0.001 2.724,-1.067 3.057,-2.382c0.333,-1.316 -0.497,-2.385 -1.852,-2.385Z" style="fill:#fff;"/><path d="M32.202,57.521l-4.337,3.374l43.692,56.115l4.337,-3.374l-43.692,-56.115Z" style="fill:#fff;"/></g></g></g><ellipse cx="66.134" cy="67.151" rx="56.523" ry="57.453" style="fill:#fff;fill-opacity:0;stroke:#fff;stroke-width:4.17px;"/></g></svg>